<mxfile host="Electron" modified="2024-07-11T07:01:45.147Z" agent="Mozilla/5.0 (Windows NT 10.0; Win64; x64) AppleWebKit/537.36 (KHTML, like Gecko) draw.io/24.6.4 Chrome/124.0.6367.207 Electron/30.0.6 Safari/537.36" etag="0qr4iRx7k9VjnASDPvQP" version="24.6.4" type="device">
  <diagram name="Page-1" id="YY3lo63RkC8oFY1JT1Ge">
    <mxGraphModel dx="1050" dy="621" grid="1" gridSize="10" guides="1" tooltips="1" connect="1" arrows="1" fold="1" page="1" pageScale="1" pageWidth="827" pageHeight="1169" math="0" shadow="0">
      <root>
        <mxCell id="0" />
        <mxCell id="1" parent="0" />
        <mxCell id="6yqakplnWn1b4gOPNGDF-5" style="edgeStyle=orthogonalEdgeStyle;rounded=0;orthogonalLoop=1;jettySize=auto;html=1;entryX=0;entryY=0.5;entryDx=0;entryDy=0;" parent="1" source="6yqakplnWn1b4gOPNGDF-1" target="6yqakplnWn1b4gOPNGDF-3" edge="1">
          <mxGeometry relative="1" as="geometry" />
        </mxCell>
        <mxCell id="6yqakplnWn1b4gOPNGDF-1" value="Frontend" style="rounded=0;whiteSpace=wrap;html=1;" parent="1" vertex="1">
          <mxGeometry x="120" y="400" width="120" height="60" as="geometry" />
        </mxCell>
        <mxCell id="6yqakplnWn1b4gOPNGDF-2" value="" style="shape=actor;whiteSpace=wrap;html=1;" parent="1" vertex="1">
          <mxGeometry x="30" y="400" width="40" height="60" as="geometry" />
        </mxCell>
        <mxCell id="6yqakplnWn1b4gOPNGDF-10" style="edgeStyle=orthogonalEdgeStyle;rounded=0;orthogonalLoop=1;jettySize=auto;html=1;" parent="1" source="6yqakplnWn1b4gOPNGDF-3" target="6yqakplnWn1b4gOPNGDF-9" edge="1">
          <mxGeometry relative="1" as="geometry" />
        </mxCell>
        <mxCell id="6yqakplnWn1b4gOPNGDF-3" value="Middleware contrôle rôle" style="rounded=0;whiteSpace=wrap;html=1;" parent="1" vertex="1">
          <mxGeometry x="300" y="400" width="120" height="60" as="geometry" />
        </mxCell>
        <mxCell id="6yqakplnWn1b4gOPNGDF-6" style="edgeStyle=orthogonalEdgeStyle;rounded=0;orthogonalLoop=1;jettySize=auto;html=1;entryX=0.448;entryY=0.004;entryDx=0;entryDy=0;entryPerimeter=0;" parent="1" source="6yqakplnWn1b4gOPNGDF-3" target="6yqakplnWn1b4gOPNGDF-1" edge="1">
          <mxGeometry relative="1" as="geometry">
            <Array as="points">
              <mxPoint x="360" y="360" />
              <mxPoint x="174" y="360" />
            </Array>
          </mxGeometry>
        </mxCell>
        <mxCell id="6yqakplnWn1b4gOPNGDF-8" value="Error 403" style="edgeLabel;html=1;align=center;verticalAlign=middle;resizable=0;points=[];" parent="6yqakplnWn1b4gOPNGDF-6" vertex="1" connectable="0">
          <mxGeometry x="0.1497" y="-1" relative="1" as="geometry">
            <mxPoint as="offset" />
          </mxGeometry>
        </mxCell>
        <mxCell id="6yqakplnWn1b4gOPNGDF-7" value="NOK" style="text;html=1;align=center;verticalAlign=middle;whiteSpace=wrap;rounded=0;fontColor=#FF0000;" parent="1" vertex="1">
          <mxGeometry x="300" y="360" width="60" height="30" as="geometry" />
        </mxCell>
        <mxCell id="6yqakplnWn1b4gOPNGDF-9" value="Middleware contrôle keys info sup valide" style="rounded=0;whiteSpace=wrap;html=1;" parent="1" vertex="1">
          <mxGeometry x="470" y="400" width="120" height="60" as="geometry" />
        </mxCell>
        <mxCell id="6yqakplnWn1b4gOPNGDF-11" value="hôtel : accessibility, Equipment, services&lt;div&gt;&lt;br&gt;&lt;/div&gt;&lt;div&gt;restaurant: cook, diner, price&lt;/div&gt;&lt;div&gt;&lt;br&gt;&lt;/div&gt;&lt;div&gt;activité : schedules, duration&lt;/div&gt;" style="text;html=1;align=center;verticalAlign=middle;whiteSpace=wrap;rounded=0;" parent="1" vertex="1">
          <mxGeometry x="390" y="505" width="266" height="80" as="geometry" />
        </mxCell>
        <mxCell id="6yqakplnWn1b4gOPNGDF-12" style="edgeStyle=orthogonalEdgeStyle;rounded=0;orthogonalLoop=1;jettySize=auto;html=1;entryX=0.462;entryY=1.05;entryDx=0;entryDy=0;entryPerimeter=0;" parent="1" source="6yqakplnWn1b4gOPNGDF-11" target="6yqakplnWn1b4gOPNGDF-9" edge="1">
          <mxGeometry relative="1" as="geometry" />
        </mxCell>
      </root>
    </mxGraphModel>
  </diagram>
</mxfile>
